<?xml version="1.0" encoding="UTF-8"?>
<svg id="Layer_2" data-name="Layer 2" xmlns="http://www.w3.org/2000/svg" viewBox="0 0 993.7 993.51">
  <defs>
    <style>
      .cls-1 {
        fill: #fff;
      }
    </style>
  </defs>
  <g id="Capa_1" data-name="Capa 1">
    <g>
      <path class="cls-1" d="M797.1,334.84h-220.77c0-1.52,0-2.87,0-4.22,0-17.2.02-34.41,0-51.61-.01-8.25-4.12-12.4-12.31-12.4-45.03-.02-90.06-.02-135.09,0-8.47,0-12.64,4.04-12.69,12.51-.09,16.82-.03,33.65-.03,50.47,0,1.63,0,3.26,0,5.18h-219.82c18.35-33.49,41.36-62.98,69.44-88.44,55.59-50.42,120.7-80.32,195.39-87.86,164.25-16.59,286.34,80.92,335.88,176.4Z"/>
      <path class="cls-1" d="M576.49,831.86v-179.27h226.6c-19.44,38.48-45.01,71.84-76.67,100.61-44.83,40.74-100.78,68.08-149.94,78.66Z"/>
      <path class="cls-1" d="M190.61,652.26h4.63c71.96,0,143.91,0,215.87,0q5.1,0,5.1,5.16c0,56.53,0,113.06,0,169.59v4.8c-40.82-9.89-78.02-26.47-112.17-49.88-48.62-33.32-86.19-76.36-113.43-129.67Z"/>
      <g>
        <path class="cls-1" d="M274.31,118.22c-2.44-4.03-6.88-2.73-10.22-.71l-7.23,4.38,6.24,10.3,7.71-4.67c3.27-1.98,5.86-5.41,3.5-9.3Z"/>
        <path class="cls-1" d="M210.88,202.88c7.7-7.3,7.47-17.63.22-25.27-7.25-7.64-17.55-8.42-25.25-1.12-7.7,7.3-7.46,17.63-.22,25.27,7.25,7.64,17.55,8.42,25.25,1.12Z"/>
        <polygon class="cls-1" points="322.07 94.4 322.65 113.23 335.34 107.81 322.07 94.4"/>
        <path class="cls-1" d="M284.76,146.39c3.34-2.02,6.23-5.73,3.66-9.96-2.77-4.57-8.34-2.22-11.82-.12l-8.05,4.88,6.65,10.98,9.55-5.79Z"/>
        <path class="cls-1" d="M725.2,133.97c5.49-9.64.36-18.52-8.79-23.73l-6.38-3.63-16.57,29.11,5.61,3.2c10.05,5.72,19.78,6.21,26.13-4.95Z"/>
        <path class="cls-1" d="M931.15,528.96c-10.48-1.03-18.78,5.13-19.81,15.68-1.04,10.56,5.9,18.21,16.38,19.24,10.48,1.03,18.78-5.13,19.82-15.68,1.04-10.56-5.9-18.21-16.38-19.24Z"/>
        <path class="cls-1" d="M993.26,480.41c-6.53-145.61-64.81-266.62-174.93-361.97-65.04-56.32-140.61-92.06-225.06-108.88-39.77-7.92-79.97-11.26-120.37-8.73C316.17,10.67,190.27,78.6,95.98,204.02,49.97,265.23,21.38,334.45,7.87,409.83c-4.13,23.05-6.58,46.3-7.24,69.72-.06,2-.41,3.99-.63,5.98v22.01c.48,7.56.95,15.12,1.46,22.67,5.69,84.29,30.72,162.43,76.63,233.31,71.91,111.02,172.35,183.05,300.6,215.72,47.36,12.06,95.65,16.2,144.46,13.45,111.83-6.3,210.82-45.43,295.92-118.11,85.72-73.21,140.27-165.5,163.96-275.83,8.37-39,12.01-78.52,10.23-118.34ZM841.54,238.78c14.94-10.23,31.74-6.18,41.7,8.37,3.56,5.2,6.29,13,3.93,20.41l-11.86-3.48c1.04-3.71.39-7.62-2.22-11.43-5.32-7.76-15.56-9.16-24.25-3.21-8.69,5.95-11.08,16-5.99,23.44,2.84,4.15,6.98,6.24,11.58,6.18l-.52,12.93c-8.19-.1-15.26-4.92-19.63-11.3-9.96-14.54-7.68-31.67,7.26-41.91ZM820.32,173.55l-31.64,31.98,16.38,16.21-8.08,8.16-25.23-24.96,39.72-40.14,8.84,8.75ZM795.91,150.8l-7.04,9.08-20.48-15.89-6.45,8.32,19.35,15.01-7.04,9.08-19.35-15.01-7.04,9.08,21.62,16.77-7.04,9.08-31.45-24.39,34.61-44.62,30.32,23.51ZM704.9,90.47l16.22,9.23c15.8,9,25.22,23.26,14.99,41.21-9.04,15.87-26.85,17.02-41.48,8.69l-17.68-10.06,27.94-49.08ZM638.97,64.27l6.82,61.21-13.42-4.14-1.12-12.87-20.96-6.47-8.03,10.05-13.11-4.05,39.98-46.77,9.83,3.03ZM559.83,45.8l43.92,8.17-2.01,10.82-15.84-2.95-8.31,44.7-12.23-2.28,8.31-44.7-15.84-2.95,2.01-10.82ZM512.34,83.21c2.32,3.51,6.33,5.78,10.47,6.05,4.06.27,8.72-1.34,8.99-5.32.69-10.35-26.1-6.54-24.85-25.32.8-12.02,11.65-17.61,22.71-16.87,6.37.42,12.38,2.5,16.88,7.04l-9.14,8.74c-1.82-2.68-5.72-4.14-8.74-4.34-3.5-.23-8.46,1.03-8.74,5.25-.69,10.27,25.7,5.39,24.38,25.13-.84,12.57-11.34,17.87-22.96,17.1-7.24-.48-13.46-3.05-18.47-8.34l9.48-9.12ZM491.28,42.02l1.46,56.46-12.44.32-1.46-56.46,12.44-.32ZM464.83,42.61l1.3,10.93-16,1.9,5.37,45.14-12.35,1.47-5.37-45.14-16,1.9-1.3-10.93,44.35-5.28ZM370.66,59.57l8.58,33.12c1.74,6.72,7.69,10.61,14.1,8.95,6.33-1.64,9.64-7.94,7.9-14.65l-8.58-33.12,12.04-3.12,8.7,33.59c3.34,12.89-2.06,24.51-17.19,28.43-15.21,3.94-25.57-3.59-28.91-16.49l-8.7-33.59,12.04-3.12ZM311.21,81.17l9.46-4.04,44.78,42.28-12.91,5.52-9.18-9.09-20.17,8.62.37,12.85-12.62,5.39.26-61.52ZM258.77,108.42c8.46-5.12,18.75-8.93,25.11,1.58,3.26,5.39,2.15,11.1-1.88,15.68l.08.14c6.84-3.02,13.92-.88,17.72,5.4,6.12,10.1-1.41,19.23-10.01,24.43l-19.79,11.98-29.25-48.3,18.01-10.91ZM177.94,168.15c12.79-12.13,30.07-12.57,42.53.56,12.46,13.14,11.1,30.37-1.69,42.5-12.79,12.13-30.07,12.58-42.53-.56-12.46-13.14-11.1-30.37,1.69-42.5ZM148.24,200.42l8.64,6.83-9.99,12.64,35.67,28.2-7.72,9.76-35.67-28.2-9.99,12.64-8.64-6.83,27.7-35.04ZM35.95,457.28c.63-6.35,2.9-12.3,7.58-16.64l8.45,9.41c-2.74,1.73-4.32,5.58-4.62,8.6-.35,3.49.76,8.49,4.97,8.91,10.24,1.01,6.21-25.52,25.9-23.57,12.54,1.24,17.5,11.91,16.35,23.5-.71,7.22-3.49,13.36-8.93,18.19l-8.81-9.77c3.58-2.21,5.98-6.14,6.39-10.27.4-4.05-1.06-8.76-5.03-9.15-10.32-1.02-7.37,25.88-26.1,24.03-11.99-1.19-17.23-12.2-16.14-23.24ZM35.79,534.52l38.17-25.68v-.16s-39.22,1.69-39.22,1.69l-.54-12.43,56.42-2.44.7,16.26-39.1,26.36v.16s40.17-1.74,40.17-1.74l.54,12.43-56.42,2.44-.73-16.89ZM41.72,583.69l-1.97-12.29,55.76-8.94,1.97,12.29-55.76,8.94ZM99.55,423.67l-44.39-9.84-3.48,15.73-10.75-2.38,9.66-43.61,10.75,2.38-3.48,15.73,44.39,9.84-2.69,12.15ZM108.66,387.41l-53.84-17.05,3.76-11.86,53.84,17.05-3.76,11.86ZM121,352.2l-41.9-17.65-6.25,14.85-10.14-4.27,17.34-41.16,10.14,4.27-6.25,14.85,41.9,17.65-4.83,11.47ZM117.03,307.26l-29.87-17.65,6.33-10.71,29.46,17.41c5.97,3.53,12.94,2.09,16.31-3.61,3.33-5.63,1.23-12.43-4.74-15.96l-29.46-17.41,6.33-10.71,29.87,17.65c11.47,6.78,15.84,18.81,7.89,32.27-8,13.53-20.65,15.5-32.12,8.72ZM556.94,854.34c-.09-1.34-.24-2.66-.24-3.97,0-106.65-.01-213.3,0-319.94,0-10.74,3.67-14.42,14.31-14.43,30.99,0,61.99,0,92.98,0,9.41,0,13.11-3.67,13.12-13.01,0-33.65,0-67.3,0-100.95,0-8.73-3.98-12.7-12.77-12.71-31.37-.02-62.75,0-94.12-.01-9.72,0-13.51-3.79-13.52-13.56-.02-26.19.01-52.38,0-78.56,0-10.85-3.43-14.2-14.36-14.2-30.36,0-60.72,0-91.09,0-11.03,0-14.4,3.41-14.4,14.59,0,26.31-.03,52.63.02,78.94,0,4.12-.54,8.15-4.26,10.35-2.46,1.45-5.64,2.33-8.5,2.35-31.25.16-62.5.1-93.74.1-9.75,0-13.61,3.84-13.62,13.51,0,33.27,0,66.54,0,99.82,0,9.57,3.76,13.35,13.28,13.35,31,0,61.99,0,92.98,0,9.96,0,13.82,3.82,13.82,13.72,0,106.77,0,213.55,0,320.32v4.13c-153.18-22.65-298.15-159.71-302.47-349.1-4.52-198.57,149.72-358.94,340.36-370.3,200.79-11.97,368.88,139.52,383.71,333.14,15.48,202.15-131.3,359.83-301.5,386.43ZM851.36,305.05l50.43-25.43,17.27,34.26-10.26,5.17-11.67-23.15-9.4,4.74,11.03,21.87-10.26,5.17-11.03-21.87-10.26,5.17,12.32,24.43-10.26,5.17-17.92-35.54ZM886,386.79l30.38-36.06-.05-.15-38.15,12.67-3.92-11.81,53.59-17.8,5.33,16.05-29.67,35.16.05.15,37.24-12.37,3.92,11.81-53.59,17.8-5.13-15.44ZM895.75,426.24l44.74-8.08-2.86-15.86,10.83-1.96,7.94,43.96-10.83,1.96-2.87-15.86-44.74,8.08-2.21-12.24ZM958.96,549.33c-1.72,17.54-14.49,29.19-32.51,27.42-18.02-1.77-28.27-15.68-26.55-33.22,1.72-17.54,14.49-29.19,32.51-27.42,18.02,1.77,28.27,15.68,26.55,33.23ZM943.21,503.85c-7.89.41-14.24-3.49-16.09-11.38l-23.06,15.59-.78-14.9,21.92-12.97-.32-6.13-22.54,1.18-.65-12.43,56.4-2.96,1.15,21.83c.61,11.55-2.87,21.48-16.01,22.17Z"/>
        <path class="cls-1" d="M948.21,472.83l-12.82.67.38,7.33c.24,4.54.71,10.43,6.84,10.1,5.65-.3,6.26-5.44,6.02-9.98l-.43-8.12Z"/>
        <polygon class="cls-1" points="628.86 78.34 617.13 93.09 630.32 97.16 628.86 78.34"/>
      </g>
    </g>
  </g>
</svg>